solid model
facet normal 0.0 0.0 -1.0
outer loop
vertex -13.1957114711343 7.00428852886565 0.0
vertex -13.1957114711343 -7.00428852886565 0.0
vertex -20.2 2.47378653427765e-015 0.0
endloop
endfacet
facet normal 0.0 0.0 -1.0
outer loop
vertex -13.1957114711343 -7.00428852886565 0.0
vertex -13.1957114711343 7.00428852886565 0.0
vertex -10.6251840891798 2.84700949612773 0.0
endloop
endfacet
facet normal 0.0 0.0 -1.0
outer loop
vertex -10.6251840891798 2.84700949612773 0.0
vertex -13.1957114711343 7.00428852886565 0.0
vertex -7.00428852886565 13.1957114711343 0.0
endloop
endfacet
facet normal 0.0 0.0 -1.0
outer loop
vertex -13.1957114711343 -7.00428852886565 0.0
vertex -10.6251840891798 2.84700949612773 0.0
vertex -11.0 1.34711147906209e-015 0.0
endloop
endfacet
facet normal 0.0 0.0 -1.0
outer loop
vertex -10.6251840891798 2.84700949612773 0.0
vertex -7.00428852886565 13.1957114711343 0.0
vertex -9.52627944162882 5.5 0.0
endloop
endfacet
facet normal 0.0 0.0 -1.0
outer loop
vertex -9.52627944162882 5.5 0.0
vertex -7.00428852886565 13.1957114711343 0.0
vertex -7.77817459305202 7.77817459305202 0.0
endloop
endfacet
facet normal 0.0 0.0 -1.0
outer loop
vertex -7.77817459305202 7.77817459305202 0.0
vertex -7.00428852886565 13.1957114711343 0.0
vertex -5.5 9.52627944162882 0.0
endloop
endfacet
facet normal 0.0 0.0 -1.0
outer loop
vertex -5.5 9.52627944162882 0.0
vertex -7.00428852886565 13.1957114711343 0.0
vertex 1.23689326713883e-015 20.2 0.0
endloop
endfacet
facet normal 0.0 0.0 -1.0
outer loop
vertex -5.5 9.52627944162882 0.0
vertex 1.23689326713883e-015 20.2 0.0
vertex -2.84700949612773 10.6251840891798 0.0
endloop
endfacet
facet normal 0.0 0.0 -1.0
outer loop
vertex -2.84700949612773 10.6251840891798 0.0
vertex 1.23689326713883e-015 20.2 0.0
vertex 6.73555739531044e-016 11.0 0.0
endloop
endfacet
facet normal 0.0 0.0 -1.0
outer loop
vertex 6.73555739531044e-016 11.0 0.0
vertex 1.23689326713883e-015 20.2 0.0
vertex 2.84700949612773 10.6251840891798 0.0
endloop
endfacet
facet normal 0.0 0.0 -1.0
outer loop
vertex 2.84700949612773 10.6251840891798 0.0
vertex 1.23689326713883e-015 20.2 0.0
vertex 7.00428852886566 13.1957114711343 0.0
endloop
endfacet
facet normal 0.0 0.0 -1.0
outer loop
vertex 2.84700949612773 10.6251840891798 0.0
vertex 7.00428852886566 13.1957114711343 0.0
vertex 5.5 9.52627944162882 0.0
endloop
endfacet
facet normal 0.0 0.0 -1.0
outer loop
vertex 5.5 9.52627944162882 0.0
vertex 7.00428852886566 13.1957114711343 0.0
vertex 7.77817459305202 7.77817459305202 0.0
endloop
endfacet
facet normal 0.0 0.0 -1.0
outer loop
vertex 7.77817459305202 7.77817459305202 0.0
vertex 7.00428852886566 13.1957114711343 0.0
vertex 13.1957114711343 7.00428852886565 0.0
endloop
endfacet
facet normal 0.0 0.0 -1.0
outer loop
vertex 7.77817459305202 7.77817459305202 0.0
vertex 13.1957114711343 7.00428852886565 0.0
vertex 9.52627944162882 5.5 0.0
endloop
endfacet
facet normal 0.0 0.0 -1.0
outer loop
vertex 9.52627944162882 5.5 0.0
vertex 13.1957114711343 7.00428852886565 0.0
vertex 10.6251840891798 2.84700949612773 0.0
endloop
endfacet
facet normal 0.0 0.0 -1.0
outer loop
vertex 10.6251840891798 2.84700949612773 0.0
vertex 13.1957114711343 7.00428852886565 0.0
vertex 11.0 0.0 0.0
endloop
endfacet
facet normal 0.0 0.0 -1.0
outer loop
vertex 11.0 0.0 0.0
vertex 13.1957114711343 7.00428852886565 0.0
vertex 13.1957114711343 -7.00428852886566 0.0
endloop
endfacet
facet normal 0.0 0.0 -1.0
outer loop
vertex 13.1957114711343 -7.00428852886566 0.0
vertex 13.1957114711343 7.00428852886565 0.0
vertex 20.2 0.0 0.0
endloop
endfacet
facet normal 0.0 0.0 -1.0
outer loop
vertex -13.1957114711343 -7.00428852886565 0.0
vertex -10.6251840891798 -2.84700949612772 0.0
vertex -7.00428852886566 -13.1957114711343 0.0
endloop
endfacet
facet normal 0.0 0.0 -1.0
outer loop
vertex -10.6251840891798 -2.84700949612772 0.0
vertex -13.1957114711343 -7.00428852886565 0.0
vertex -11.0 1.34711147906209e-015 0.0
endloop
endfacet
facet normal 0.0 0.0 -1.0
outer loop
vertex -7.00428852886566 -13.1957114711343 0.0
vertex -10.6251840891798 -2.84700949612772 0.0
vertex -9.52627944162883 -5.5 0.0
endloop
endfacet
facet normal 0.0 0.0 -1.0
outer loop
vertex -7.00428852886566 -13.1957114711343 0.0
vertex -9.52627944162883 -5.5 0.0
vertex -7.77817459305203 -7.77817459305202 0.0
endloop
endfacet
facet normal 0.0 0.0 -1.0
outer loop
vertex -7.00428852886566 -13.1957114711343 0.0
vertex -7.77817459305203 -7.77817459305202 0.0
vertex -5.5 -9.52627944162882 0.0
endloop
endfacet
facet normal 0.0 0.0 -1.0
outer loop
vertex -7.00428852886566 -13.1957114711343 0.0
vertex -5.5 -9.52627944162882 0.0
vertex -3.71067980141648e-015 -20.2 0.0
endloop
endfacet
facet normal 0.0 0.0 -1.0
outer loop
vertex -3.71067980141648e-015 -20.2 0.0
vertex -5.5 -9.52627944162882 0.0
vertex -2.84700949612774 -10.6251840891797 0.0
endloop
endfacet
facet normal 0.0 0.0 -1.0
outer loop
vertex -3.71067980141648e-015 -20.2 0.0
vertex -2.84700949612774 -10.6251840891797 0.0
vertex -2.02066721859313e-015 -11.0 0.0
endloop
endfacet
facet normal 0.0 0.0 -1.0
outer loop
vertex -3.71067980141648e-015 -20.2 0.0
vertex -2.02066721859313e-015 -11.0 0.0
vertex 7.00428852886565 -13.1957114711344 0.0
endloop
endfacet
facet normal 0.0 0.0 -1.0
outer loop
vertex 7.00428852886565 -13.1957114711344 0.0
vertex -2.02066721859313e-015 -11.0 0.0
vertex 2.84700949612772 -10.6251840891798 0.0
endloop
endfacet
facet normal 0.0 0.0 -1.0
outer loop
vertex 7.00428852886565 -13.1957114711344 0.0
vertex 2.84700949612772 -10.6251840891798 0.0
vertex 5.49999999999999 -9.52627944162883 0.0
endloop
endfacet
facet normal 0.0 0.0 -1.0
outer loop
vertex 7.00428852886565 -13.1957114711344 0.0
vertex 5.49999999999999 -9.52627944162883 0.0
vertex 7.77817459305202 -7.77817459305202 0.0
endloop
endfacet
facet normal 0.0 0.0 -1.0
outer loop
vertex 7.00428852886565 -13.1957114711344 0.0
vertex 7.77817459305202 -7.77817459305202 0.0
vertex 13.1957114711343 -7.00428852886566 0.0
endloop
endfacet
facet normal 0.0 0.0 -1.0
outer loop
vertex 13.1957114711343 -7.00428852886566 0.0
vertex 7.77817459305202 -7.77817459305202 0.0
vertex 9.52627944162882 -5.5 0.0
endloop
endfacet
facet normal 0.0 0.0 -1.0
outer loop
vertex 13.1957114711343 -7.00428852886566 0.0
vertex 9.52627944162882 -5.5 0.0
vertex 10.6251840891797 -2.84700949612774 0.0
endloop
endfacet
facet normal 0.0 0.0 -1.0
outer loop
vertex 13.1957114711343 -7.00428852886566 0.0
vertex 10.6251840891797 -2.84700949612774 0.0
vertex 11.0 0.0 0.0
endloop
endfacet
facet normal -0.99144486137381 0.130526192220052 0.0
outer loop
vertex 11.0 0.0 1.95
vertex 10.6251840891797 -2.84700949612774 0.0
vertex 10.6251840891797 -2.84700949612774 1.95
endloop
endfacet
facet normal -0.99144486137381 0.130526192220052 0.0
outer loop
vertex 10.6251840891797 -2.84700949612774 0.0
vertex 11.0 0.0 1.95
vertex 11.0 0.0 0.0
endloop
endfacet
facet normal -0.923879532511287 0.38268343236509 0.0
outer loop
vertex 10.6251840891797 -2.84700949612774 1.95
vertex 9.52627944162882 -5.5 0.0
vertex 9.52627944162882 -5.5 1.95
endloop
endfacet
facet normal -0.923879532511287 0.38268343236509 0.0
outer loop
vertex 9.52627944162882 -5.5 0.0
vertex 10.6251840891797 -2.84700949612774 1.95
vertex 10.6251840891797 -2.84700949612774 0.0
endloop
endfacet
facet normal -0.793353340291235 0.608761429008721 0.0
outer loop
vertex 9.52627944162882 -5.5 1.95
vertex 7.77817459305202 -7.77817459305202 0.0
vertex 7.77817459305202 -7.77817459305202 1.95
endloop
endfacet
facet normal -0.793353340291235 0.608761429008721 0.0
outer loop
vertex 7.77817459305202 -7.77817459305202 0.0
vertex 9.52627944162882 -5.5 1.95
vertex 9.52627944162882 -5.5 0.0
endloop
endfacet
facet normal -0.60876142900872 0.793353340291235 0.0
outer loop
vertex 5.49999999999999 -9.52627944162883 1.95
vertex 7.77817459305202 -7.77817459305202 0.0
vertex 5.49999999999999 -9.52627944162883 0.0
endloop
endfacet
facet normal -0.60876142900872 0.793353340291235 0.0
outer loop
vertex 7.77817459305202 -7.77817459305202 0.0
vertex 5.49999999999999 -9.52627944162883 1.95
vertex 7.77817459305202 -7.77817459305202 1.95
endloop
endfacet
facet normal -0.382683432365089 0.923879532511287 0.0
outer loop
vertex 2.84700949612772 -10.6251840891798 1.95
vertex 5.49999999999999 -9.52627944162883 0.0
vertex 2.84700949612772 -10.6251840891798 0.0
endloop
endfacet
facet normal -0.382683432365089 0.923879532511287 0.0
outer loop
vertex 5.49999999999999 -9.52627944162883 0.0
vertex 2.84700949612772 -10.6251840891798 1.95
vertex 5.49999999999999 -9.52627944162883 1.95
endloop
endfacet
facet normal -0.130526192220051 0.99144486137381 0.0
outer loop
vertex -2.02066721859313e-015 -11.0 1.95
vertex 2.84700949612772 -10.6251840891798 0.0
vertex -2.02066721859313e-015 -11.0 0.0
endloop
endfacet
facet normal -0.130526192220051 0.99144486137381 0.0
outer loop
vertex 2.84700949612772 -10.6251840891798 0.0
vertex -2.02066721859313e-015 -11.0 1.95
vertex 2.84700949612772 -10.6251840891798 1.95
endloop
endfacet
facet normal 0.130526192220052 0.99144486137381 0.0
outer loop
vertex -2.84700949612774 -10.6251840891797 1.95
vertex -2.02066721859313e-015 -11.0 0.0
vertex -2.84700949612774 -10.6251840891797 0.0
endloop
endfacet
facet normal 0.130526192220052 0.99144486137381 0.0
outer loop
vertex -2.02066721859313e-015 -11.0 0.0
vertex -2.84700949612774 -10.6251840891797 1.95
vertex -2.02066721859313e-015 -11.0 1.95
endloop
endfacet
facet normal 0.38268343236509 0.923879532511286 0.0
outer loop
vertex -5.5 -9.52627944162882 1.95
vertex -2.84700949612774 -10.6251840891797 0.0
vertex -5.5 -9.52627944162882 0.0
endloop
endfacet
facet normal 0.38268343236509 0.923879532511286 0.0
outer loop
vertex -2.84700949612774 -10.6251840891797 0.0
vertex -5.5 -9.52627944162882 1.95
vertex -2.84700949612774 -10.6251840891797 1.95
endloop
endfacet
facet normal 0.608761429008721 0.793353340291235 0.0
outer loop
vertex -7.77817459305203 -7.77817459305202 1.95
vertex -5.5 -9.52627944162882 0.0
vertex -7.77817459305203 -7.77817459305202 0.0
endloop
endfacet
facet normal 0.608761429008721 0.793353340291235 0.0
outer loop
vertex -5.5 -9.52627944162882 0.0
vertex -7.77817459305203 -7.77817459305202 1.95
vertex -5.5 -9.52627944162882 1.95
endloop
endfacet
facet normal -0.99144486137381 -0.130526192220051 -0.0
outer loop
vertex 10.6251840891798 2.84700949612773 1.95
vertex 11.0 0.0 0.0
vertex 11.0 0.0 1.95
endloop
endfacet
facet normal -0.99144486137381 -0.130526192220051 -0.0
outer loop
vertex 11.0 0.0 0.0
vertex 10.6251840891798 2.84700949612773 1.95
vertex 10.6251840891798 2.84700949612773 0.0
endloop
endfacet
facet normal -0.707106781186547 0.707106781186548 0.0
outer loop
vertex -20.2 2.47378653427765e-015 1.95
vertex -13.1957114711343 7.00428852886565 0.0
vertex -20.2 2.47378653427765e-015 0.0
endloop
endfacet
facet normal -0.707106781186547 0.707106781186548 0.0
outer loop
vertex -13.1957114711343 7.00428852886565 0.0
vertex -20.2 2.47378653427765e-015 1.95
vertex -13.1957114711343 7.00428852886565 1.95
endloop
endfacet
facet normal -0.707106781186548 -0.707106781186547 -0.0
outer loop
vertex -20.2 2.47378653427765e-015 1.95
vertex -13.1957114711343 -7.00428852886565 0.0
vertex -13.1957114711343 -7.00428852886565 1.95
endloop
endfacet
facet normal -0.707106781186548 -0.707106781186547 -0.0
outer loop
vertex -13.1957114711343 -7.00428852886565 0.0
vertex -20.2 2.47378653427765e-015 1.95
vertex -20.2 2.47378653427765e-015 0.0
endloop
endfacet
facet normal -0.707106781186547 -0.707106781186548 -0.0
outer loop
vertex -7.00428852886566 -13.1957114711343 1.95
vertex -13.1957114711343 -7.00428852886565 0.0
vertex -7.00428852886566 -13.1957114711343 0.0
endloop
endfacet
facet normal -0.707106781186547 -0.707106781186548 -0.0
outer loop
vertex -13.1957114711343 -7.00428852886565 0.0
vertex -7.00428852886566 -13.1957114711343 1.95
vertex -13.1957114711343 -7.00428852886565 1.95
endloop
endfacet
facet normal -0.707106781186548 -0.707106781186547 -0.0
outer loop
vertex -7.00428852886566 -13.1957114711343 1.95
vertex -3.71067980141648e-015 -20.2 0.0
vertex -3.71067980141648e-015 -20.2 1.95
endloop
endfacet
facet normal -0.707106781186548 -0.707106781186547 -0.0
outer loop
vertex -3.71067980141648e-015 -20.2 0.0
vertex -7.00428852886566 -13.1957114711343 1.95
vertex -7.00428852886566 -13.1957114711343 0.0
endloop
endfacet
facet normal 0.707106781186547 -0.707106781186548 1.04059916445228e-016
outer loop
vertex 20.2 0.0 1.95
vertex 13.1957114711343 -7.00428852886566 0.0
vertex 20.2 0.0 0.0
endloop
endfacet
facet normal 0.707106781186547 -0.707106781186548 1.04059916445228e-016
outer loop
vertex 13.1957114711343 -7.00428852886566 0.0
vertex 20.2 0.0 1.95
vertex 7.00428852886565 -13.1957114711344 0.0
endloop
endfacet
facet normal 0.707106781186547 -0.707106781186548 1.04059916445228e-016
outer loop
vertex 7.00428852886565 -13.1957114711344 0.0
vertex 20.2 0.0 1.95
vertex -3.71067980141648e-015 -20.2 0.0
endloop
endfacet
facet normal 0.707106781186547 -0.707106781186548 1.04059916445228e-016
outer loop
vertex -3.71067980141648e-015 -20.2 0.0
vertex 20.2 0.0 1.95
vertex -3.71067980141648e-015 -20.2 1.95
endloop
endfacet
facet normal 0.707106781186547 -0.707106781186548 1.04059916445228e-016
outer loop
vertex -3.71067980141648e-015 -20.2 1.95
vertex 20.2 0.0 1.95
vertex 13.1957114711343 -7.00428852886566 1.95
endloop
endfacet
facet normal 0.707106781186547 -0.707106781186548 1.04059916445228e-016
outer loop
vertex -3.71067980141648e-015 -20.2 1.95
vertex 13.1957114711343 -7.00428852886566 1.95
vertex 7.00428852886565 -13.1957114711344 1.95
endloop
endfacet
facet normal 0.707106781186547 0.707106781186547 0.0
outer loop
vertex 13.1957114711343 7.00428852886565 0.0
vertex 20.2 0.0 1.95
vertex 20.2 0.0 0.0
endloop
endfacet
facet normal 0.707106781186547 0.707106781186547 0.0
outer loop
vertex 20.2 0.0 1.95
vertex 13.1957114711343 7.00428852886565 0.0
vertex 13.1957114711343 7.00428852886565 1.95
endloop
endfacet
facet normal 0.707106781186548 0.707106781186547 0.0
outer loop
vertex 7.00428852886566 13.1957114711343 0.0
vertex 13.1957114711343 7.00428852886565 1.95
vertex 13.1957114711343 7.00428852886565 0.0
endloop
endfacet
facet normal 0.707106781186548 0.707106781186547 0.0
outer loop
vertex 13.1957114711343 7.00428852886565 1.95
vertex 7.00428852886566 13.1957114711343 0.0
vertex 7.00428852886566 13.1957114711343 1.95
endloop
endfacet
facet normal 0.707106781186547 0.707106781186547 0.0
outer loop
vertex 1.23689326713883e-015 20.2 0.0
vertex 7.00428852886566 13.1957114711343 1.95
vertex 7.00428852886566 13.1957114711343 0.0
endloop
endfacet
facet normal 0.707106781186547 0.707106781186547 0.0
outer loop
vertex 7.00428852886566 13.1957114711343 1.95
vertex 1.23689326713883e-015 20.2 0.0
vertex 1.23689326713883e-015 20.2 1.95
endloop
endfacet
facet normal -0.707106781186547 0.707106781186548 0.0
outer loop
vertex -7.00428852886565 13.1957114711343 1.95
vertex 1.23689326713883e-015 20.2 0.0
vertex -7.00428852886565 13.1957114711343 0.0
endloop
endfacet
facet normal -0.707106781186547 0.707106781186548 0.0
outer loop
vertex 1.23689326713883e-015 20.2 0.0
vertex -7.00428852886565 13.1957114711343 1.95
vertex 1.23689326713883e-015 20.2 1.95
endloop
endfacet
facet normal -0.707106781186547 0.707106781186547 0.0
outer loop
vertex -7.00428852886565 13.1957114711343 1.95
vertex -13.1957114711343 7.00428852886565 0.0
vertex -13.1957114711343 7.00428852886565 1.95
endloop
endfacet
facet normal -0.707106781186547 0.707106781186547 0.0
outer loop
vertex -13.1957114711343 7.00428852886565 0.0
vertex -7.00428852886565 13.1957114711343 1.95
vertex -7.00428852886565 13.1957114711343 0.0
endloop
endfacet
facet normal -0.0 -0.0 1.0
outer loop
vertex -13.1957114711343 -7.00428852886565 1.95
vertex -13.1957114711343 7.00428852886565 1.95
vertex -20.2 2.47378653427765e-015 1.95
endloop
endfacet
facet normal -0.0 -0.0 1.0
outer loop
vertex -13.1957114711343 7.00428852886565 1.95
vertex -13.1957114711343 -7.00428852886565 1.95
vertex -10.6251840891798 -2.84700949612772 1.95
endloop
endfacet
facet normal -0.0 -0.0 1.0
outer loop
vertex -10.6251840891798 -2.84700949612772 1.95
vertex -13.1957114711343 -7.00428852886565 1.95
vertex -7.00428852886566 -13.1957114711343 1.95
endloop
endfacet
facet normal -0.0 -0.0 1.0
outer loop
vertex -13.1957114711343 7.00428852886565 1.95
vertex -10.6251840891798 -2.84700949612772 1.95
vertex -11.0 1.34711147906209e-015 1.95
endloop
endfacet
facet normal -0.0 -0.0 1.0
outer loop
vertex -10.6251840891798 -2.84700949612772 1.95
vertex -7.00428852886566 -13.1957114711343 1.95
vertex -9.52627944162883 -5.5 1.95
endloop
endfacet
facet normal -0.0 -0.0 1.0
outer loop
vertex -9.52627944162883 -5.5 1.95
vertex -7.00428852886566 -13.1957114711343 1.95
vertex -7.77817459305203 -7.77817459305202 1.95
endloop
endfacet
facet normal -0.0 -0.0 1.0
outer loop
vertex -7.77817459305203 -7.77817459305202 1.95
vertex -7.00428852886566 -13.1957114711343 1.95
vertex -5.5 -9.52627944162882 1.95
endloop
endfacet
facet normal -0.0 -0.0 1.0
outer loop
vertex -5.5 -9.52627944162882 1.95
vertex -7.00428852886566 -13.1957114711343 1.95
vertex -3.71067980141648e-015 -20.2 1.95
endloop
endfacet
facet normal -0.0 -0.0 1.0
outer loop
vertex -5.5 -9.52627944162882 1.95
vertex -3.71067980141648e-015 -20.2 1.95
vertex -2.84700949612774 -10.6251840891797 1.95
endloop
endfacet
facet normal -0.0 -0.0 1.0
outer loop
vertex -2.84700949612774 -10.6251840891797 1.95
vertex -3.71067980141648e-015 -20.2 1.95
vertex -2.02066721859313e-015 -11.0 1.95
endloop
endfacet
facet normal -0.0 -0.0 1.0
outer loop
vertex -2.02066721859313e-015 -11.0 1.95
vertex -3.71067980141648e-015 -20.2 1.95
vertex 7.00428852886565 -13.1957114711344 1.95
endloop
endfacet
facet normal -0.0 -0.0 1.0
outer loop
vertex -2.02066721859313e-015 -11.0 1.95
vertex 7.00428852886565 -13.1957114711344 1.95
vertex 2.84700949612772 -10.6251840891798 1.95
endloop
endfacet
facet normal -0.0 -0.0 1.0
outer loop
vertex 2.84700949612772 -10.6251840891798 1.95
vertex 7.00428852886565 -13.1957114711344 1.95
vertex 5.49999999999999 -9.52627944162883 1.95
endloop
endfacet
facet normal -0.0 -0.0 1.0
outer loop
vertex 5.49999999999999 -9.52627944162883 1.95
vertex 7.00428852886565 -13.1957114711344 1.95
vertex 7.77817459305202 -7.77817459305202 1.95
endloop
endfacet
facet normal -0.0 -0.0 1.0
outer loop
vertex 7.77817459305202 -7.77817459305202 1.95
vertex 7.00428852886565 -13.1957114711344 1.95
vertex 13.1957114711343 -7.00428852886566 1.95
endloop
endfacet
facet normal -0.0 -0.0 1.0
outer loop
vertex 7.77817459305202 -7.77817459305202 1.95
vertex 13.1957114711343 -7.00428852886566 1.95
vertex 9.52627944162882 -5.5 1.95
endloop
endfacet
facet normal -0.0 -0.0 1.0
outer loop
vertex 9.52627944162882 -5.5 1.95
vertex 13.1957114711343 -7.00428852886566 1.95
vertex 10.6251840891797 -2.84700949612774 1.95
endloop
endfacet
facet normal -0.0 -0.0 1.0
outer loop
vertex 10.6251840891797 -2.84700949612774 1.95
vertex 13.1957114711343 -7.00428852886566 1.95
vertex 11.0 0.0 1.95
endloop
endfacet
facet normal -0.0 -0.0 1.0
outer loop
vertex -13.1957114711343 7.00428852886565 1.95
vertex -10.6251840891798 2.84700949612773 1.95
vertex -7.00428852886565 13.1957114711343 1.95
endloop
endfacet
facet normal -0.0 -0.0 1.0
outer loop
vertex -10.6251840891798 2.84700949612773 1.95
vertex -13.1957114711343 7.00428852886565 1.95
vertex -11.0 1.34711147906209e-015 1.95
endloop
endfacet
facet normal -0.0 -0.0 1.0
outer loop
vertex -7.00428852886565 13.1957114711343 1.95
vertex -10.6251840891798 2.84700949612773 1.95
vertex -9.52627944162882 5.5 1.95
endloop
endfacet
facet normal -0.0 -0.0 1.0
outer loop
vertex -7.00428852886565 13.1957114711343 1.95
vertex -9.52627944162882 5.5 1.95
vertex -7.77817459305202 7.77817459305202 1.95
endloop
endfacet
facet normal -0.0 -0.0 1.0
outer loop
vertex -7.00428852886565 13.1957114711343 1.95
vertex -7.77817459305202 7.77817459305202 1.95
vertex -5.5 9.52627944162882 1.95
endloop
endfacet
facet normal -0.0 -0.0 1.0
outer loop
vertex -7.00428852886565 13.1957114711343 1.95
vertex -5.5 9.52627944162882 1.95
vertex 1.23689326713883e-015 20.2 1.95
endloop
endfacet
facet normal -0.0 -0.0 1.0
outer loop
vertex 1.23689326713883e-015 20.2 1.95
vertex -5.5 9.52627944162882 1.95
vertex -2.84700949612773 10.6251840891798 1.95
endloop
endfacet
facet normal -0.0 -0.0 1.0
outer loop
vertex 1.23689326713883e-015 20.2 1.95
vertex -2.84700949612773 10.6251840891798 1.95
vertex 6.73555739531044e-016 11.0 1.95
endloop
endfacet
facet normal -0.0 -0.0 1.0
outer loop
vertex 1.23689326713883e-015 20.2 1.95
vertex 6.73555739531044e-016 11.0 1.95
vertex 2.84700949612773 10.6251840891798 1.95
endloop
endfacet
facet normal -0.0 -0.0 1.0
outer loop
vertex 1.23689326713883e-015 20.2 1.95
vertex 2.84700949612773 10.6251840891798 1.95
vertex 7.00428852886566 13.1957114711343 1.95
endloop
endfacet
facet normal -0.0 -0.0 1.0
outer loop
vertex 7.00428852886566 13.1957114711343 1.95
vertex 2.84700949612773 10.6251840891798 1.95
vertex 5.5 9.52627944162882 1.95
endloop
endfacet
facet normal -0.0 -0.0 1.0
outer loop
vertex 7.00428852886566 13.1957114711343 1.95
vertex 5.5 9.52627944162882 1.95
vertex 7.77817459305202 7.77817459305202 1.95
endloop
endfacet
facet normal -0.0 -0.0 1.0
outer loop
vertex 7.00428852886566 13.1957114711343 1.95
vertex 7.77817459305202 7.77817459305202 1.95
vertex 13.1957114711343 7.00428852886565 1.95
endloop
endfacet
facet normal -0.0 -0.0 1.0
outer loop
vertex 13.1957114711343 7.00428852886565 1.95
vertex 7.77817459305202 7.77817459305202 1.95
vertex 9.52627944162882 5.5 1.95
endloop
endfacet
facet normal -0.0 -0.0 1.0
outer loop
vertex 13.1957114711343 7.00428852886565 1.95
vertex 9.52627944162882 5.5 1.95
vertex 10.6251840891798 2.84700949612773 1.95
endloop
endfacet
facet normal -0.0 -0.0 1.0
outer loop
vertex 13.1957114711343 7.00428852886565 1.95
vertex 10.6251840891798 2.84700949612773 1.95
vertex 11.0 0.0 1.95
endloop
endfacet
facet normal -0.0 -0.0 1.0
outer loop
vertex 13.1957114711343 7.00428852886565 1.95
vertex 11.0 0.0 1.95
vertex 13.1957114711343 -7.00428852886566 1.95
endloop
endfacet
facet normal -0.0 -0.0 1.0
outer loop
vertex 13.1957114711343 7.00428852886565 1.95
vertex 13.1957114711343 -7.00428852886566 1.95
vertex 20.2 0.0 1.95
endloop
endfacet
facet normal 0.793353340291235 0.60876142900872 0.0
outer loop
vertex -9.52627944162883 -5.5 0.0
vertex -7.77817459305203 -7.77817459305202 1.95
vertex -7.77817459305203 -7.77817459305202 0.0
endloop
endfacet
facet normal 0.793353340291235 0.60876142900872 0.0
outer loop
vertex -7.77817459305203 -7.77817459305202 1.95
vertex -9.52627944162883 -5.5 0.0
vertex -9.52627944162883 -5.5 1.95
endloop
endfacet
facet normal 0.923879532511287 0.382683432365089 0.0
outer loop
vertex -10.6251840891798 -2.84700949612772 0.0
vertex -9.52627944162883 -5.5 1.95
vertex -9.52627944162883 -5.5 0.0
endloop
endfacet
facet normal 0.923879532511287 0.382683432365089 0.0
outer loop
vertex -9.52627944162883 -5.5 1.95
vertex -10.6251840891798 -2.84700949612772 0.0
vertex -10.6251840891798 -2.84700949612772 1.95
endloop
endfacet
facet normal 0.99144486137381 0.130526192220051 0.0
outer loop
vertex -11.0 1.34711147906209e-015 0.0
vertex -10.6251840891798 -2.84700949612772 1.95
vertex -10.6251840891798 -2.84700949612772 0.0
endloop
endfacet
facet normal 0.99144486137381 0.130526192220051 0.0
outer loop
vertex -10.6251840891798 -2.84700949612772 1.95
vertex -11.0 1.34711147906209e-015 0.0
vertex -11.0 1.34711147906209e-015 1.95
endloop
endfacet
facet normal 0.99144486137381 -0.130526192220052 0.0
outer loop
vertex -10.6251840891798 2.84700949612773 0.0
vertex -11.0 1.34711147906209e-015 1.95
vertex -11.0 1.34711147906209e-015 0.0
endloop
endfacet
facet normal 0.99144486137381 -0.130526192220052 0.0
outer loop
vertex -11.0 1.34711147906209e-015 1.95
vertex -10.6251840891798 2.84700949612773 0.0
vertex -10.6251840891798 2.84700949612773 1.95
endloop
endfacet
facet normal 0.923879532511287 -0.38268343236509 0.0
outer loop
vertex -9.52627944162882 5.5 0.0
vertex -10.6251840891798 2.84700949612773 1.95
vertex -10.6251840891798 2.84700949612773 0.0
endloop
endfacet
facet normal 0.923879532511287 -0.38268343236509 0.0
outer loop
vertex -10.6251840891798 2.84700949612773 1.95
vertex -9.52627944162882 5.5 0.0
vertex -9.52627944162882 5.5 1.95
endloop
endfacet
facet normal 0.793353340291235 -0.608761429008721 0.0
outer loop
vertex -7.77817459305202 7.77817459305202 0.0
vertex -9.52627944162882 5.5 1.95
vertex -9.52627944162882 5.5 0.0
endloop
endfacet
facet normal 0.793353340291235 -0.608761429008721 0.0
outer loop
vertex -9.52627944162882 5.5 1.95
vertex -7.77817459305202 7.77817459305202 0.0
vertex -7.77817459305202 7.77817459305202 1.95
endloop
endfacet
facet normal 0.60876142900872 -0.793353340291235 0.0
outer loop
vertex -5.5 9.52627944162882 1.95
vertex -7.77817459305202 7.77817459305202 0.0
vertex -5.5 9.52627944162882 0.0
endloop
endfacet
facet normal 0.60876142900872 -0.793353340291235 0.0
outer loop
vertex -7.77817459305202 7.77817459305202 0.0
vertex -5.5 9.52627944162882 1.95
vertex -7.77817459305202 7.77817459305202 1.95
endloop
endfacet
facet normal 0.38268343236509 -0.923879532511287 0.0
outer loop
vertex -2.84700949612773 10.6251840891798 1.95
vertex -5.5 9.52627944162882 0.0
vertex -2.84700949612773 10.6251840891798 0.0
endloop
endfacet
facet normal 0.38268343236509 -0.923879532511287 0.0
outer loop
vertex -5.5 9.52627944162882 0.0
vertex -2.84700949612773 10.6251840891798 1.95
vertex -5.5 9.52627944162882 1.95
endloop
endfacet
facet normal 0.130526192220051 -0.99144486137381 0.0
outer loop
vertex 6.73555739531044e-016 11.0 1.95
vertex -2.84700949612773 10.6251840891798 0.0
vertex 6.73555739531044e-016 11.0 0.0
endloop
endfacet
facet normal 0.130526192220051 -0.99144486137381 0.0
outer loop
vertex -2.84700949612773 10.6251840891798 0.0
vertex 6.73555739531044e-016 11.0 1.95
vertex -2.84700949612773 10.6251840891798 1.95
endloop
endfacet
facet normal -0.130526192220052 -0.99144486137381 -0.0
outer loop
vertex 2.84700949612773 10.6251840891798 1.95
vertex 6.73555739531044e-016 11.0 0.0
vertex 2.84700949612773 10.6251840891798 0.0
endloop
endfacet
facet normal -0.130526192220052 -0.99144486137381 -0.0
outer loop
vertex 6.73555739531044e-016 11.0 0.0
vertex 2.84700949612773 10.6251840891798 1.95
vertex 6.73555739531044e-016 11.0 1.95
endloop
endfacet
facet normal -0.38268343236509 -0.923879532511287 -0.0
outer loop
vertex 5.5 9.52627944162882 1.95
vertex 2.84700949612773 10.6251840891798 0.0
vertex 5.5 9.52627944162882 0.0
endloop
endfacet
facet normal -0.38268343236509 -0.923879532511287 -0.0
outer loop
vertex 2.84700949612773 10.6251840891798 0.0
vertex 5.5 9.52627944162882 1.95
vertex 2.84700949612773 10.6251840891798 1.95
endloop
endfacet
facet normal -0.608761429008721 -0.793353340291235 -0.0
outer loop
vertex 7.77817459305202 7.77817459305202 1.95
vertex 5.5 9.52627944162882 0.0
vertex 7.77817459305202 7.77817459305202 0.0
endloop
endfacet
facet normal -0.608761429008721 -0.793353340291235 -0.0
outer loop
vertex 5.5 9.52627944162882 0.0
vertex 7.77817459305202 7.77817459305202 1.95
vertex 5.5 9.52627944162882 1.95
endloop
endfacet
facet normal -0.793353340291235 -0.608761429008721 -0.0
outer loop
vertex 7.77817459305202 7.77817459305202 1.95
vertex 9.52627944162882 5.5 0.0
vertex 9.52627944162882 5.5 1.95
endloop
endfacet
facet normal -0.793353340291235 -0.608761429008721 -0.0
outer loop
vertex 9.52627944162882 5.5 0.0
vertex 7.77817459305202 7.77817459305202 1.95
vertex 7.77817459305202 7.77817459305202 0.0
endloop
endfacet
facet normal -0.923879532511287 -0.38268343236509 -0.0
outer loop
vertex 9.52627944162882 5.5 1.95
vertex 10.6251840891798 2.84700949612773 0.0
vertex 10.6251840891798 2.84700949612773 1.95
endloop
endfacet
facet normal -0.923879532511287 -0.38268343236509 -0.0
outer loop
vertex 10.6251840891798 2.84700949612773 0.0
vertex 9.52627944162882 5.5 1.95
vertex 9.52627944162882 5.5 0.0
endloop
endfacet
endsolid model
